<svg width="50" height="50" viewBox="0 0 50 50" fill="none" xmlns="http://www.w3.org/2000/svg">
<path d="M24.9998 45.8334C36.5058 45.8334 45.8332 36.506 45.8332 25.0001C45.8332 13.4941 36.5058 4.16675 24.9998 4.16675C13.4939 4.16675 4.1665 13.4941 4.1665 25.0001C4.1665 36.506 13.4939 45.8334 24.9998 45.8334Z" stroke="#16250D" style="stroke:#16250D;stroke:color(display-p3 0.0863 0.1451 0.0510);stroke-opacity:1;" stroke-width="3.125" stroke-linecap="round" stroke-linejoin="round"/>
<path d="M16.6667 6.25H18.75C14.6875 18.4167 14.6875 31.5833 18.75 43.75H16.6667" stroke="#16250D" style="stroke:#16250D;stroke:color(display-p3 0.0863 0.1451 0.0510);stroke-opacity:1;" stroke-width="3.125" stroke-linecap="round" stroke-linejoin="round"/>
<path d="M31.25 6.25C35.3125 18.4167 35.3125 31.5833 31.25 43.75" stroke="#16250D" style="stroke:#16250D;stroke:color(display-p3 0.0863 0.1451 0.0510);stroke-opacity:1;" stroke-width="3.125" stroke-linecap="round" stroke-linejoin="round"/>
<path d="M6.25 33.3333V31.25C18.4167 35.3125 31.5833 35.3125 43.75 31.25V33.3333" stroke="#16250D" style="stroke:#16250D;stroke:color(display-p3 0.0863 0.1451 0.0510);stroke-opacity:1;" stroke-width="3.125" stroke-linecap="round" stroke-linejoin="round"/>
<path d="M6.25 18.7502C18.4167 14.6877 31.5833 14.6877 43.75 18.7502" stroke="#16250D" style="stroke:#16250D;stroke:color(display-p3 0.0863 0.1451 0.0510);stroke-opacity:1;" stroke-width="3.125" stroke-linecap="round" stroke-linejoin="round"/>
</svg>
