<svg width="50" height="50" viewBox="0 0 50 50" fill="none" xmlns="http://www.w3.org/2000/svg">
<path d="M41.3748 16.8543C41.3748 17.7293 41.3123 18.5835 41.2082 19.396C40.2498 18.9793 39.2082 18.7501 38.104 18.7501C35.5624 18.7501 33.3124 19.9793 31.9165 21.8543C30.4999 19.9793 28.2498 18.7501 25.7082 18.7501C21.4373 18.7501 17.979 22.2293 17.979 26.5418C17.979 32.1251 20.9373 36.396 24.229 39.2918C24.1248 39.3543 24.0207 39.3752 23.9165 39.4168C23.2915 39.646 22.2498 39.646 21.6248 39.4168C16.229 37.5627 4.1665 29.896 4.1665 16.8543C4.1665 11.1043 8.79149 6.4585 14.4998 6.4585C17.8957 6.4585 20.8957 8.08348 22.7707 10.6043C24.6665 8.08348 27.6665 6.4585 31.0415 6.4585C36.7498 6.4585 41.3748 11.1043 41.3748 16.8543Z" stroke="#16250D" style="stroke:#16250D;stroke:color(display-p3 0.0863 0.1451 0.0510);stroke-opacity:1;" stroke-width="3.125" stroke-linecap="round" stroke-linejoin="round"/>
<path d="M45.8332 26.5416C45.8332 36.2916 36.8123 42.0417 32.7707 43.4167C32.2915 43.5833 31.5206 43.5833 31.0415 43.4167C29.3123 42.8333 26.6665 41.4375 24.229 39.2916C20.9373 36.3958 17.979 32.125 17.979 26.5416C17.979 22.2291 21.4373 18.75 25.7082 18.75C28.2498 18.75 30.4998 19.9791 31.9165 21.8541C33.3123 19.9791 35.5623 18.75 38.104 18.75C39.2082 18.75 40.2498 18.9792 41.2082 19.3958C43.9373 20.6042 45.8332 23.3333 45.8332 26.5416Z" stroke="#16250D" style="stroke:#16250D;stroke:color(display-p3 0.0863 0.1451 0.0510);stroke-opacity:1;" stroke-width="3.125" stroke-linecap="round" stroke-linejoin="round"/>
</svg>
