<svg width="50" height="50" viewBox="0 0 50 50" fill="none" xmlns="http://www.w3.org/2000/svg">
<path fill-rule="evenodd" clip-rule="evenodd" d="M22.3937 6.73506C22.3937 4.74128 24.0099 3.125 26.0037 3.125C27.9975 3.125 29.6138 4.74128 29.6138 6.73506V44.5724H35.3871C36.0229 44.5724 36.5384 45.0878 36.5384 45.7237C36.5384 46.3595 36.0229 46.875 35.3871 46.875H16.4197C15.7838 46.875 15.2683 46.3595 15.2683 45.7237C15.2683 45.0878 15.7838 44.5724 16.4197 44.5724H22.3937V6.73506ZM24.6963 44.5724H27.3112V6.73506C27.3112 6.01299 26.7258 5.42763 26.0037 5.42763C25.2817 5.42763 24.6963 6.01299 24.6963 6.73506V44.5724Z" fill="black" style="fill:black;fill-opacity:1;"/>
<path fill-rule="evenodd" clip-rule="evenodd" d="M22.3937 6.73506C22.3937 4.74128 24.0099 3.125 26.0037 3.125C27.9975 3.125 29.6138 4.74128 29.6138 6.73506V44.5724H35.3871C36.0229 44.5724 36.5384 45.0878 36.5384 45.7237C36.5384 46.3595 36.0229 46.875 35.3871 46.875H16.4197C15.7838 46.875 15.2683 46.3595 15.2683 45.7237C15.2683 45.0878 15.7838 44.5724 16.4197 44.5724H22.3937V6.73506ZM24.6963 44.5724H27.3112V6.73506C27.3112 6.01299 26.7258 5.42763 26.0037 5.42763C25.2817 5.42763 24.6963 6.01299 24.6963 6.73506V44.5724Z" fill="#16250D" style="fill:#16250D;fill:color(display-p3 0.0863 0.1451 0.0510);fill-opacity:1;"/>
<path fill-rule="evenodd" clip-rule="evenodd" d="M10.1187 7.85302C10.4307 7.5254 10.8634 7.33998 11.3158 7.33998H23.0432C23.9562 7.33998 24.6963 8.0801 24.6963 8.99308V14.312C24.6963 15.225 23.9562 15.9651 23.0432 15.9651H11.3158C10.8634 15.9651 10.4307 15.7797 10.1187 15.4521L7.58591 12.7926C6.97787 12.1542 6.97787 11.1509 7.58591 10.5125L10.1187 7.85302ZM11.5942 9.64262L9.67996 11.6525L11.5942 13.6625H22.3937V9.64262H11.5942Z" fill="black" style="fill:black;fill-opacity:1;"/>
<path fill-rule="evenodd" clip-rule="evenodd" d="M10.1187 7.85302C10.4307 7.5254 10.8634 7.33998 11.3158 7.33998H23.0432C23.9562 7.33998 24.6963 8.0801 24.6963 8.99308V14.312C24.6963 15.225 23.9562 15.9651 23.0432 15.9651H11.3158C10.8634 15.9651 10.4307 15.7797 10.1187 15.4521L7.58591 12.7926C6.97787 12.1542 6.97787 11.1509 7.58591 10.5125L10.1187 7.85302ZM11.5942 9.64262L9.67996 11.6525L11.5942 13.6625H22.3937V9.64262H11.5942Z" fill="#16250D" style="fill:#16250D;fill:color(display-p3 0.0863 0.1451 0.0510);fill-opacity:1;"/>
<path d="M9.67996 11.6525L11.5942 9.64262H22.3937V13.6625H11.5942L9.67996 11.6525Z" fill="black" style="fill:black;fill-opacity:1;"/>
<path d="M9.67996 11.6525L11.5942 9.64262H22.3937V13.6625H11.5942L9.67996 11.6525Z" fill="#16250D" style="fill:#16250D;fill:color(display-p3 0.0863 0.1451 0.0510);fill-opacity:1;"/>
<path fill-rule="evenodd" clip-rule="evenodd" d="M39.8816 14.1754C39.5696 13.8478 39.137 13.6624 38.6845 13.6624H28.9643C28.0513 13.6624 27.3112 14.4025 27.3112 15.3155V20.6344C27.3112 21.5474 28.0513 22.2875 28.9643 22.2875H38.6845C39.137 22.2875 39.5696 22.1021 39.8816 21.7745L42.4144 19.115C43.0225 18.4766 43.0225 17.4733 42.4144 16.8349L39.8816 14.1754ZM38.4062 15.965L40.3204 17.975L38.4062 19.9849H29.6138V15.965H38.4062Z" fill="black" style="fill:black;fill-opacity:1;"/>
<path fill-rule="evenodd" clip-rule="evenodd" d="M39.8816 14.1754C39.5696 13.8478 39.137 13.6624 38.6845 13.6624H28.9643C28.0513 13.6624 27.3112 14.4025 27.3112 15.3155V20.6344C27.3112 21.5474 28.0513 22.2875 28.9643 22.2875H38.6845C39.137 22.2875 39.5696 22.1021 39.8816 21.7745L42.4144 19.115C43.0225 18.4766 43.0225 17.4733 42.4144 16.8349L39.8816 14.1754ZM38.4062 15.965L40.3204 17.975L38.4062 19.9849H29.6138V15.965H38.4062Z" fill="#16250D" style="fill:#16250D;fill:color(display-p3 0.0863 0.1451 0.0510);fill-opacity:1;"/>
<path d="M40.3204 17.975L38.4062 15.965H29.6138V19.9849H38.4062L40.3204 17.975Z" fill="black" style="fill:black;fill-opacity:1;"/>
<path d="M40.3204 17.975L38.4062 15.965H29.6138V19.9849H38.4062L40.3204 17.975Z" fill="#16250D" style="fill:#16250D;fill:color(display-p3 0.0863 0.1451 0.0510);fill-opacity:1;"/>
<path fill-rule="evenodd" clip-rule="evenodd" d="M16.1402 21.2005C16.4522 20.8729 16.8848 20.6874 17.3372 20.6874H23.0432C23.9562 20.6874 24.6963 21.4276 24.6963 22.3405V27.6595C24.6963 28.5724 23.9562 29.3126 23.0432 29.3126H17.3372C16.8848 29.3126 16.4522 29.1271 16.1402 28.7995L13.6073 26.1401C12.9993 25.5016 12.9993 24.4984 13.6073 23.8599L16.1402 21.2005ZM17.6156 22.9901L15.7014 25L17.6156 27.0099H22.3937V22.9901H17.6156Z" fill="black" style="fill:black;fill-opacity:1;"/>
<path fill-rule="evenodd" clip-rule="evenodd" d="M16.1402 21.2005C16.4522 20.8729 16.8848 20.6874 17.3372 20.6874H23.0432C23.9562 20.6874 24.6963 21.4276 24.6963 22.3405V27.6595C24.6963 28.5724 23.9562 29.3126 23.0432 29.3126H17.3372C16.8848 29.3126 16.4522 29.1271 16.1402 28.7995L13.6073 26.1401C12.9993 25.5016 12.9993 24.4984 13.6073 23.8599L16.1402 21.2005ZM17.6156 22.9901L15.7014 25L17.6156 27.0099H22.3937V22.9901H17.6156Z" fill="#16250D" style="fill:#16250D;fill:color(display-p3 0.0863 0.1451 0.0510);fill-opacity:1;"/>
<path d="M15.7014 25L17.6156 22.9901H22.3937V27.0099H17.6156L15.7014 25Z" fill="black" style="fill:black;fill-opacity:1;"/>
<path d="M15.7014 25L17.6156 22.9901H22.3937V27.0099H17.6156L15.7014 25Z" fill="#16250D" style="fill:#16250D;fill:color(display-p3 0.0863 0.1451 0.0510);fill-opacity:1;"/>
</svg>
