<svg width="50" height="50" viewBox="0 0 50 50" fill="none" xmlns="http://www.w3.org/2000/svg">
<path fill-rule="evenodd" clip-rule="evenodd" d="M27.7697 11.4492C28.3406 10.3822 29.8698 10.3805 30.4431 11.4462L34.3216 18.656L33.3002 19.6536C32.8407 20.1024 32.107 20.1024 31.6474 19.6536C30.2413 18.2802 27.996 18.2802 26.5898 19.6536C26.1303 20.1024 25.3965 20.1024 24.937 19.6536L23.9141 18.6545L27.7697 11.4492ZM35.0026 21.3967L35.5227 20.8887L44.252 37.1155C44.7956 38.1261 44.0636 39.3511 42.916 39.3511H29.0947C28.7904 40.0479 28.1024 40.5693 27.2376 40.5693H12.5146C13.2179 41.3089 14.2136 41.7876 15.3716 41.7876H42.916C45.9068 41.7876 47.8146 38.5951 46.3977 35.9612L32.5888 10.2919C31.0947 7.51444 27.1094 7.51886 25.6214 10.2996L19.9963 20.812L21.3817 23.3872L22.7172 20.8913L23.2346 21.3967C24.6408 22.7701 26.8861 22.7701 28.2922 21.3967C28.7518 20.9479 29.4855 20.9479 29.945 21.3967C31.3512 22.7701 33.5965 22.7701 35.0026 21.3967Z" fill="#16250D" style="fill:#16250D;fill:color(display-p3 0.0863 0.1451 0.0510);fill-opacity:1;"/>
<path fill-rule="evenodd" clip-rule="evenodd" d="M17.7287 19.1684C17.4241 18.6023 16.6119 18.6032 16.3086 19.17L13.5677 24.2921L14.1545 24.8652C14.3714 25.0771 14.7179 25.0771 14.9349 24.8652C16.0985 23.7287 17.9565 23.7287 19.1202 24.8652C19.3371 25.0771 19.6836 25.0771 19.9006 24.8652L20.4858 24.2936L17.7287 19.1684ZM21.6869 26.5263L21.603 26.6083C20.4394 27.7448 18.5814 27.7448 17.4177 26.6083C17.2008 26.3963 16.8543 26.3963 16.6373 26.6083C15.4737 27.7448 13.6157 27.7448 12.452 26.6083L12.3708 26.5289L11.9044 27.4005C11.3998 28.3436 10.417 28.9323 9.34746 28.9323C9.15278 28.9323 8.97885 29.054 8.91207 29.2368L5.61322 38.269C5.42122 38.7947 5.81044 39.3512 6.37012 39.3512H27.2376C27.8472 39.3512 28.236 38.7005 27.9472 38.1637L21.6869 26.5263ZM14.1603 18.0204C15.3806 15.7399 18.649 15.7362 19.8744 18.0141L30.093 37.0094C31.255 39.1694 29.6904 41.7877 27.2376 41.7877H6.37012C4.11815 41.7877 2.55202 39.5484 3.3246 37.4331L6.62344 28.4009C7.04129 27.2569 8.12948 26.4958 9.34746 26.4958C9.51842 26.4958 9.6755 26.4017 9.75615 26.251L14.1603 18.0204Z" fill="#16250D" style="fill:#16250D;fill:color(display-p3 0.0863 0.1451 0.0510);fill-opacity:1;"/>
<path d="M21.603 26.6083L21.6869 26.5263L27.9472 38.1637C28.236 38.7005 27.8472 39.3512 27.2376 39.3512H6.37012C5.81044 39.3512 5.42122 38.7947 5.61322 38.269L8.91207 29.2368C8.97885 29.054 9.15278 28.9323 9.34746 28.9323C10.417 28.9323 11.3998 28.3436 11.9044 27.4005L12.3708 26.5289L12.452 26.6083C13.6157 27.7448 15.4737 27.7448 16.6373 26.6083C16.8543 26.3963 17.2008 26.3963 17.4177 26.6083C18.5814 27.7448 20.4394 27.7448 21.603 26.6083Z" fill="#16250D" style="fill:#16250D;fill:color(display-p3 0.0863 0.1451 0.0510);fill-opacity:1;"/>
</svg>
